<?xml version="1.0" encoding="UTF-8" standalone="no"?>
<svg
   xmlns:dc="http://purl.org/dc/elements/1.1/"
   xmlns:cc="http://creativecommons.org/ns#"
   xmlns:rdf="http://www.w3.org/1999/02/22-rdf-syntax-ns#"
   xmlns:svg="http://www.w3.org/2000/svg"
   xmlns="http://www.w3.org/2000/svg"
   xmlns:sodipodi="http://sodipodi.sourceforge.net/DTD/sodipodi-0.dtd"
   xmlns:inkscape="http://www.inkscape.org/namespaces/inkscape"
   id="MDN_Web_Docs"
   data-name="MDN Web Docs"
   viewBox="0 0 48 48"
   preserveAspectRatio="xMaxYMid"
   width="48"
   height="48"
   version="1.1"
   sodipodi:docname="web-docs-sprite.22a6a085cf14.svg"
   inkscape:version="0.92.2 (5c3e80d, 2017-08-06)">
  <metadata
     id="metadata8">
    <rdf:RDF>
      <cc:Work
         rdf:about="">
        <dc:format>image/svg+xml</dc:format>
        <dc:type
           rdf:resource="http://purl.org/dc/dcmitype/StillImage" />
        <dc:title></dc:title>
      </cc:Work>
    </rdf:RDF>
  </metadata>
  <sodipodi:namedview
     pagecolor="#ffffff"
     bordercolor="#666666"
     borderopacity="1"
     objecttolerance="10"
     gridtolerance="10"
     guidetolerance="10"
     inkscape:pageopacity="0"
     inkscape:pageshadow="2"
     inkscape:window-width="1600"
     inkscape:window-height="845"
     id="namedview6"
     showgrid="false"
     inkscape:zoom="4.72"
     inkscape:cx="25"
     inkscape:cy="25"
     inkscape:window-x="0"
     inkscape:window-y="0"
     inkscape:window-maximized="1"
     inkscape:current-layer="MDN_Web_Docs" />
  <defs
     id="defs4">
    <style
       id="style2">.cls-1{fill:#fff;}</style>
  </defs>
  <path
     d="M 0.116,0.11864407 H 48.072 V 48.074644 H 0.116 Z M 42.01,22.138644 c -0.036,-0.723 -0.12,-1.448 -0.17,-2.166 -0.027,-0.36 -0.165,-0.702 -0.395,-0.98 -0.272,-0.332 -0.626,-0.587 -1.026,-0.74 -0.81,-0.314 -1.623,-0.664 -2.436,-0.975 -1.152,-0.396 -2.27,-0.887 -3.342,-1.473 -0.72,-0.415 -1.2,-1.147 -1.296,-1.972 -0.106,-0.933 -0.654,-1.762 -1.47,-2.228 -0.906,-0.487 -1.963,-0.612 -2.958,-0.35 -0.734,0.176 -1.5,0.165 -2.23,-0.033 l -1.112,-0.34 -0.302,-0.09 -0.873,-0.26 c -1.57,-0.468 -2.227,-0.7129999 -4.772,-0.278 -2.682,0.608 -5.137,1.96 -7.09,3.897 l -6.37,6.76 h 5.72 l -3.504,3.71 h 6.026 l -3.503,3.71 h 4.844 l -1.547,4.06 c 5.93,6.07 12.25,7.295 12.25,7.295 0,-1.673 0.38,-8.24 0.826,-9.34 0.166,-0.552 0.424,-1.07 0.76,-1.54 0.828,-1.014 2.083,-1.588 3.394,-1.547 1.303,0 2.597,0.24 3.815,0.703 0.74,0.31 1.576,0.264 2.276,-0.122 0.507,-0.3 1.007,-0.617 1.498,-0.94 0.157,-0.124 0.355,-0.187 0.556,-0.18 0.54,0.06 1.054,-0.236 1.27,-0.733 0.16,-0.33 0.35,-0.64 0.524,-0.97 0.472,-0.884 0.69,-1.88 0.633,-2.88 z"
     id="path8"
     inkscape:connector-curvature="0" />
</svg>
