<svg xmlns="http://www.w3.org/2000/svg" id="MDN_Web_Docs" data-name="MDN Web Docs" viewBox="0 0 48 48" preserveAspectRatio="xMaxYMid" width="30" height="30">
	<defs id="defs4">
		<style id="style2">.cls-1{fill:#fff;}</style>
	</defs>
	<path d="M.116.12h47.956v47.955H.116zM42.01 22.14c-.036-.724-.12-1.45-.17-2.167-.027-.36-.165-.702-.395-.98-.272-.332-.626-.587-1.026-.74-.81-.314-1.624-.664-2.437-.975-1.152-.396-2.27-.887-3.342-1.473-.72-.415-1.2-1.147-1.295-1.972-.106-.933-.654-1.762-1.47-2.228-.906-.487-1.963-.612-2.958-.35-.734.176-1.5.165-2.23-.033l-1.112-.34-.302-.09-.873-.26c-1.57-.468-2.227-.713-4.772-.278-2.682.608-5.137 1.96-7.09 3.897l-6.37 6.76h5.72l-3.504 3.71h6.026l-3.503 3.71h4.844l-1.546 4.06c5.93 6.07 12.25 7.296 12.25 7.296 0-1.673.38-8.24.826-9.34.166-.552.424-1.07.76-1.54.828-1.014 2.083-1.588 3.394-1.547 1.303 0 2.597.24 3.815.702.74.31 1.575.264 2.275-.122.507-.3 1.007-.617 1.498-.94.157-.124.355-.187.556-.18.54.06 1.053-.236 1.27-.733.16-.33.35-.64.523-.97.472-.884.69-1.88.633-2.88z" id="path8"/>
</svg>

